#!OML:ASF E:\Style4\Style4.ASF
:FULLY-SPECIFIED
:DEGREES
2905
root -0.467059 17.9297 -1.09568 -2.56482 -4.273 1.27098
lowerback 1.81668 3.12201 -4.10403
upperback -0.223672 4.04129 -2.00486
thorax -1.38568 2.03995 0.109221
lowerneck 2.53959 -4.97335 -7.10397
upperneck 4.2077 -6.9103 4.97737
head 1.35498 -3.5191 2.77861
rclavicle -1.47846e-014 1.11319e-014
rhumerus -14.0771 -26.4096 -30.9642
rradius 66.6108
rwrist -92.1327
rhand -33.4128 14.0486
rfingers 7.12502
rthumb -6.61276 -15.8282
lclavicle -1.47846e-014 1.11319e-014
lhumerus -61.674 -33.5054 96.8627
lradius 129.844
lwrist 51.2845
lhand 10.1195 20.6946
lfingers 7.12502
lthumb 35.2397 47.1944
rfemur -2.88773 4.66112 18.6591
rtibia 23.7033
rfoot -17.354 -12.5347
rtoes -9.51698
lfemur 3.39223 -0.522528 -20.5537
ltibia 17.9142
lfoot -20.2975 15.146
ltoes -10.985
2906
root -0.472425 17.9309 -1.09768 -2.58939 -4.10121 1.27663
lowerback 1.8605 3.09374 -4.04377
upperback -0.167114 4.00533 -1.9649
thorax -1.34956 2.02074 0.117664
lowerneck 2.56461 -4.96507 -7.12572
upperneck 4.21871 -6.90341 5.03574
head 1.35722 -3.51588 2.803
rclavicle -1.54307e-014 -2.38542e-014
rhumerus -14.1967 -26.2327 -30.7792
rradius 66.8393
rwrist -91.7867
rhand -33.3139 13.9957
rfingers 7.12502
rthumb -6.51728 -15.884
lclavicle -1.54307e-014 -2.38542e-014
lhumerus -61.6604 -33.4786 96.8083
lradius 129.902
lwrist 51.3878
lhand 10.5084 20.7574
lfingers 7.12502
lthumb 35.6084 47.1692
rfemur -2.83584 4.56176 18.6666
rtibia 23.6968
rfoot -17.3902 -12.6043
rtoes -9.40739
lfemur 3.40996 -0.536374 -20.5301
ltibia 17.8626
lfoot -20.1632 15.1766
ltoes -11.7718
2907
root -0.478441 17.9322 -1.10256 -2.60364 -3.94929 1.24018
lowerback 1.97271 3.05116 -3.971
upperback -0.154939 3.94526 -1.90122
thorax -1.39746 1.99104 0.138598
lowerneck 2.56957 -4.96008 -7.10391
upperneck 4.28072 -6.89766 5.02095
head 1.37445 -3.51323 2.79359
rclavicle -2.47487e-014 1.11319e-014
rhumerus -14.2526 -25.8829 -30.6994
rradius 67.0606
rwrist -91.2537
rhand -33.3581 14.2814
rfingers 7.12502
rthumb -6.55993 -15.597
lclavicle -2.47487e-014 1.11319e-014
lhumerus -61.6353 -33.4019 96.7448
lradius 129.963
lwrist 51.5122
lhand 10.6818 20.9677
lfingers 7.12502
lthumb 35.7727 47.3397
rfemur -2.8012 4.48316 18.7321
rtibia 23.6901
rfoot -17.3915 -12.7102
rtoes -9.5589
lfemur 3.41471 -0.60558 -20.4637
ltibia 17.8048
lfoot -20.1219 15.1615
ltoes -11.9218
2908
root -0.484493 17.9331 -1.1084 -2.58835 -3.79047 1.33635
lowerback 2.03651 3.00521 -4.04625
upperback -0.13315 3.87976 -1.86856
thorax -1.41596 1.95899 0.213079
lowerneck 2.61255 -4.9514 -7.11821
upperneck 4.2845 -6.88947 5.03365
head 1.36875 -3.50977 2.80182
rclavicle 2.4289e-014 -1.43125e-014
rhumerus -14.228 -25.5702 -30.6929
rradius 67.2509
rwrist -90.5672
rhand -33.4756 14.796
rfingers 7.12502
rthumb -6.67335 -15.0789
lclavicle 2.4289e-014 -1.43125e-014
lhumerus -61.6108 -33.2728 96.6773
lradius 129.974
lwrist 51.4935
lhand 10.623 21.1619
lfingers 7.12502
lthumb 35.717 47.5475
rfemur -2.7974 4.38927 18.6443
rtibia 23.6631
rfoot -17.4146 -12.747
rtoes -9.50042
lfemur 3.3621 -0.677702 -20.5411
ltibia 17.7941
lfoot -20.0746 15.0657
ltoes -11.9136
2909
root -0.489537 17.9347 -1.11546 -2.56991 -3.6596 1.36625
lowerback 2.09522 3.0094 -4.00739
upperback -0.0918143 3.88494 -1.84356
thorax -1.40565 1.96086 0.215077
lowerneck 2.57755 -4.97076 -7.10569
upperneck 4.33083 -6.9155 5.07631
head 1.39303 -3.52206 2.812
rclavicle 2.0686e-014 1.19271e-014
rhumerus -14.3113 -25.4289 -30.6218
rradius 67.4918
rwrist -89.7787
rhand -33.3768 14.8591
rfingers 7.12502
rthumb -6.57795 -15.0188
lclavicle 2.0686e-014 1.19271e-014
lhumerus -61.6058 -33.3573 96.6914
lradius 129.983
lwrist 51.4355
lhand 10.3421 21.2107
lfingers 7.12502
lthumb 35.4507 47.6603
rfemur -2.81475 4.30463 18.6272
rtibia 23.6444
rfoot -17.3592 -12.7751
rtoes -9.4216
lfemur 3.31349 -0.721695 -20.544
ltibia 17.7734
lfoot -19.9596 15.0321
ltoes -12.0487
2910
root -0.494878 17.9359 -1.12129 -2.57403 -3.5431 1.32891
lowerback 2.14426 3.02517 -3.87886
upperback -0.0252719 3.90969 -1.80045
thorax -1.3599 1.97133 0.186779
lowerneck 2.55011 -5.00221 -7.13739
upperneck 4.31403 -6.95926 5.17271
head 1.40111 -3.54312 2.84905
rclavicle 3.28367e-014 -3.18055e-015
rhumerus -14.4435 -25.2224 -30.5096
rradius 67.8542
rwrist -89.1071
rhand -33.5319 15.1274
rfingers 7.12502
rthumb -6.7277 -14.7457
lclavicle 3.28367e-014 -3.18055e-015
lhumerus -61.6035 -33.5078 96.7203
lradius 129.99
lwrist 51.4117
lhand 10.1604 21.0768
lfingers 7.12502
lthumb 35.2785 47.5674
rfemur -2.82137 4.24914 18.6917
rtibia 23.6557
rfoot -17.3558 -12.8223
rtoes -9.30528
lfemur 3.31808 -0.760266 -20.4679
ltibia 17.7074
lfoot -19.8582 14.9035
ltoes -11.633
2911
root -0.50104 17.9361 -1.12685 -2.55733 -3.40024 1.33086
lowerback 2.15842 3.00344 -3.81449
upperback 0.0286619 3.88421 -1.75884
thorax -1.31013 1.95724 0.195912
lowerneck 2.58607 -5.02551 -7.11461
upperneck 4.24122 -6.98994 5.16376
head 1.3719 -3.55807 2.84304
rclavicle 1.89964e-014 -2.38542e-015
rhumerus -14.5121 -24.8726 -30.5163
rradius 68.2461
rwrist -88.3935
rhand -33.7966 15.8601
rfingers 7.12502
rthumb -6.98322 -14.0047
lclavicle 1.89964e-014 -2.38542e-015
lhumerus -61.5326 -33.5544 96.6756
lradius 130.005
lwrist 51.4864
lhand 10.0762 21.1649
lfingers 7.12502
lthumb 35.1986 47.6743
rfemur -2.82952 4.16251 18.7082
rtibia 23.6514
rfoot -17.3834 -12.8612
rtoes -9.26197
lfemur 3.28933 -0.800693 -20.4269
ltibia 17.6407
lfoot -19.7594 14.7075
ltoes -11.1346
2912
root -0.506571 17.938 -1.13203 -2.46829 -3.24737 1.43832
lowerback 2.11313 2.95802 -3.88883
upperback 0.04884 3.82544 -1.72729
thorax -1.26916 1.92771 0.274828
lowerneck 2.61269 -5.03678 -7.1527
upperneck 4.21562 -7.00694 5.17632
head 1.36233 -3.56717 2.85503
rclavicle -3.58931e-014 8.74653e-015
rhumerus -14.4642 -24.4855 -30.6246
rradius 68.5962
rwrist -87.465
rhand -33.8267 16.3058
rfingers 7.12502
rthumb -7.01229 -13.558
lclavicle -3.58931e-014 8.74653e-015
lhumerus -61.4691 -33.5095 96.6513
lradius 130.018
lwrist 51.5272
lhand 10.0881 21.3253
lfingers 7.12502
lthumb 35.2099 47.8321
rfemur -2.91651 4.04011 18.5849
rtibia 23.6387
rfoot -17.3913 -12.8378
rtoes -9.23727
lfemur 3.1792 -0.862982 -20.5221
ltibia 17.5875
lfoot -19.7352 14.6916
ltoes -11.5164
2913
root -0.512225 17.9396 -1.13767 -2.40859 -3.13344 1.51057
lowerback 2.13491 2.93819 -3.90277
upperback 0.064298 3.79844 -1.6968
thorax -1.26752 1.91423 0.314019
lowerneck 2.67167 -5.04719 -7.14123
upperneck 4.16065 -7.02202 5.15336
head 1.33368 -3.57501 2.84717
rclavicle 7.4917e-015 5.56597e-015
rhumerus -14.4315 -24.185 -30.7329
rradius 68.9919
rwrist -86.4248
rhand -33.7282 16.5292
rfingers 7.12502
rthumb -6.91723 -13.3378
lclavicle 7.4917e-015 5.56597e-015
lhumerus -61.4515 -33.4393 96.637
lradius 129.975
lwrist 51.4598
lhand 10.3415 21.3173
lfingers 7.12502
lthumb 35.4502 47.7671
rfemur -2.99569 3.98519 18.5138
rtibia 23.651
rfoot -17.4416 -12.8503
rtoes -9.05597
lfemur 3.13146 -0.956356 -20.5886
ltibia 17.5094
lfoot -19.7157 14.6885
ltoes -11.6048
2914
root -0.518147 17.941 -1.14409 -2.40716 -3.03962 1.51055
lowerback 2.24486 2.94411 -3.79659
upperback 0.0772523 3.80375 -1.68589
thorax -1.30976 1.91677 0.260504
lowerneck 2.69049 -5.07353 -7.07985
upperneck 4.16691 -7.05824 5.17446
head 1.33316 -3.59225 2.84284
rclavicle -4.12416e-014 -1.27222e-014
rhumerus -14.5418 -23.8861 -30.8111
rradius 69.4786
rwrist -85.3937
rhand -33.7123 16.7447
rfingers 7.12502
rthumb -6.90182 -13.1228
lclavicle -4.12416e-014 -1.27222e-014
lhumerus -61.5222 -33.4866 96.6514
lradius 129.944
lwrist 51.4063
lhand 10.3459 21.1306
lfingers 7.12502
lthumb 35.4544 47.5793
rfemur -3.00898 3.93863 18.5359
rtibia 23.6543
rfoot -17.4454 -12.8903
rtoes -9.10006
lfemur 3.13763 -1.0177 -20.575
ltibia 17.4358
lfoot -19.5074 14.6726
ltoes -11.2508
2915
root -0.523327 17.9427 -1.15076 -2.41977 -2.92786 1.61229
lowerback 2.38395 2.9347 -3.77531
upperback 0.0932773 3.7847 -1.7019
thorax -1.36808 1.90766 0.225827
lowerneck 2.63883 -5.08798 -7.06829
upperneck 4.21589 -7.07708 5.22329
head 1.36109 -3.60074 2.85486
rclavicle 3.78312e-014 2.38542e-015
rhumerus -14.6297 -23.6083 -30.952
rradius 70.0137
rwrist -84.3579
rhand -33.5981 16.9968
rfingers 7.12502
rthumb -6.79157 -12.8742
lclavicle 3.78312e-014 2.38542e-015
lhumerus -61.5191 -33.5058 96.5831
lradius 129.923
lwrist 51.4492
lhand 10.1956 21.133
lfingers 7.12502
lthumb 35.3118 47.6157
rfemur -2.98224 3.83891 18.4375
rtibia 23.6103
rfoot -17.3528 -12.9743
rtoes -9.45153
lfemur 3.13173 -1.07736 -20.6722
ltibia 17.3934
lfoot -19.3801 14.5964
ltoes -10.8582
2916
root -0.528498 17.9458 -1.15963 -2.39714 -2.81921 1.6457
lowerback 2.49981 2.92786 -3.69055
upperback 0.116614 3.77289 -1.68987
thorax -1.4039 1.90153 0.186047
lowerneck 2.55305 -5.11891 -7.0733
upperneck 4.24449 -7.11423 5.23622
head 1.38879 -3.61826 2.85669
rclavicle -3.60732e-014 3.18055e-015
rhumerus -14.6289 -23.4761 -31.1411
rradius 70.5139
rwrist -83.0969
rhand -33.2923 17.2598
rfingers 7.12502
rthumb -6.49636 -12.6205
lclavicle -3.60732e-014 3.18055e-015
lhumerus -61.4963 -33.4697 96.5375
lradius 129.901
lwrist 51.4485
lhand 10.5085 21.3839
lfingers 7.12502
lthumb 35.6085 47.7957
rfemur -2.97249 3.80473 18.417
rtibia 23.5241
rfoot -17.3191 -13.0178
rtoes -9.16802
lfemur 3.06335 -1.14115 -20.6824
ltibia 17.3752
lfoot -19.3774 14.5652
ltoes -11.0488
